<svg width="42" height="33" viewBox="0 0 42 33" fill="none" xmlns="http://www.w3.org/2000/svg">
<path d="M40.5 0.5H1.5C0.670312 0.5 0 1.15 0 1.95455V31.0455C0 31.85 0.670312 32.5 1.5 32.5H40.5C41.3297 32.5 42 31.85 42 31.0455V1.95455C42 1.15 41.3297 0.5 40.5 0.5ZM38.625 5.53636V29.2273H3.375V5.53636L2.08125 4.55909L3.92344 2.26364L5.92969 3.77727H36.075L38.0813 2.26364L39.9234 4.55909L38.625 5.53636ZM36.075 3.77273L21 15.1364L5.925 3.77273L3.91875 2.25909L2.07656 4.55454L3.37031 5.53182L19.3828 17.6045C19.8433 17.9515 20.4098 18.1398 20.993 18.1398C21.5761 18.1398 22.1426 17.9515 22.6031 17.6045L38.625 5.53636L39.9187 4.55909L38.0766 2.26364L36.075 3.77273Z" fill="black"/>
</svg>
