<svg width="42" height="43" viewBox="0 0 42 43" fill="none" xmlns="http://www.w3.org/2000/svg">
<path d="M40.1679 7.15092L34.5766 1.56562C33.8941 0.883202 32.9806 0.5 32.0146 0.5C31.0486 0.5 30.1351 0.877953 29.4526 1.56562L23.4309 7.57612C22.7483 8.25853 22.3651 9.17717 22.3651 10.143C22.3651 11.1142 22.7431 12.0223 23.4309 12.71L28.1349 17.4186C27.0633 19.9151 25.5235 22.1834 23.5989 24.101C21.6721 26.0381 19.4198 27.5656 16.9208 28.647L12.2168 23.9383C11.5343 23.2559 10.6208 22.8727 9.65479 22.8727C9.17832 22.8709 8.70628 22.9643 8.26635 23.1473C7.82641 23.3302 7.42743 23.5992 7.09278 23.9383L1.06575 29.9488C0.383252 30.6312 0 31.5499 0 32.5158C0 33.4869 0.378002 34.395 1.06575 35.0827L6.65178 40.668C7.81728 41.8333 9.42379 42.5 11.0723 42.5C11.4135 42.5 11.7443 42.4738 12.0803 42.416C19.0313 41.2717 25.9299 37.5709 31.5001 32.0066C37.0652 26.4318 40.7612 19.5341 41.9162 12.5787C42.2469 10.605 41.5854 8.57349 40.1679 7.15092ZM38.1939 11.9541C37.1702 18.143 33.8416 24.3163 28.8279 29.3294C23.8141 34.3425 17.6453 37.6706 11.4556 38.6942C10.6785 38.8255 9.88054 38.563 9.31354 38.0013L3.82727 32.5158L9.64429 26.6942L15.9338 32.9934L15.9811 33.0407L17.1151 32.6207C20.5535 31.3567 23.6758 29.3603 26.2658 26.7697C28.8558 24.1792 30.8514 21.0565 32.1144 17.6181L32.5344 16.4843L26.1924 10.1483L32.0094 4.32677L37.4957 9.81234C38.0627 10.3793 38.3252 11.1772 38.1939 11.9541Z" fill="black"/>
</svg>
